<svg width="162" height="37" viewBox="0 0 162 37" fill="none" xmlns="http://www.w3.org/2000/svg">
<path fill-rule="evenodd" clip-rule="evenodd" d="M3.13307 34.4587C1.40988 34.4587 1.6082e-07 33.0488 1.49105e-07 31.3256L7.46353e-08 20.372L7.88626 20.372L7.88626 20.3598L12.6263 20.3598C13.8482 20.3285 14.8821 19.2633 14.8821 18.01C14.8821 16.7255 13.8168 15.6602 12.5323 15.6602L6.26614 15.6602L6.26614 15.6622L4.26152e-08 15.6622L2.13011e-08 12.5272C9.58574e-09 10.804 1.40988 9.3941 3.13307 9.3941L12.5323 9.3941C14.9134 9.3941 16.9499 10.24 18.6104 11.9319C20.3023 13.5924 21.1482 15.6289 21.1482 18.01C21.1482 20.3598 20.3336 22.3963 18.6731 24.0569C17.0126 25.7174 15.0074 26.5947 12.6576 26.626L6.26614 26.626L6.26614 31.3256C6.26614 33.0488 4.85626 34.4587 3.13307 34.4587Z" fill="#02BC6B"/>
<path fill-rule="evenodd" clip-rule="evenodd" d="M25.0976 5.7578C28.559 9.11993 30.3033 13.3073 30.3033 18.0672C30.3033 22.7473 28.632 26.9307 25.224 30.3034L20.3854 25.7508C22.5048 23.6533 23.5452 21.128 23.5452 18.0672C23.5452 14.9832 22.4735 12.4619 20.3032 10.3538L25.0976 5.7578Z" fill="#02897A"/>
<path fill-rule="evenodd" clip-rule="evenodd" d="M32.5057 -3.14562e-08C37.4914 4.97781 40.0002 11.1499 40.0002 18.2338C40.0002 25.2071 37.5925 31.3753 32.6887 36.3638L28.0189 31.8009C31.6717 28.085 33.4616 23.5781 33.4616 18.2338C33.4616 12.8358 31.6114 8.33276 27.8789 4.60616L32.5057 -3.14562e-08Z" fill="#035B81"/>
<path fill-rule="evenodd" clip-rule="evenodd" d="M0 26.6524L6.26614 26.6524L6.26614 31.326C6.26614 33.0492 4.85626 34.4591 3.13307 34.4591C1.40988 34.4591 4.34898e-08 33.0492 3.17744e-08 31.326L0 26.6524Z" fill="#028E37"/>
<path d="M57.91 16.72C57.91 17.94 57.63 19.06 57.07 20.08C56.51 21.08 55.65 21.89 54.49 22.51C53.33 23.13 51.89 23.44 50.17 23.44H46.99V31H41.86V9.94H50.17C51.85 9.94 53.27 10.23 54.43 10.81C55.59 11.39 56.46 12.19 57.04 13.21C57.62 14.23 57.91 15.4 57.91 16.72ZM49.78 19.36C50.76 19.36 51.49 19.13 51.97 18.67C52.45 18.21 52.69 17.56 52.69 16.72C52.69 15.88 52.45 15.23 51.97 14.77C51.49 14.31 50.76 14.08 49.78 14.08H46.99V19.36H49.78ZM65.7107 17.05C66.3107 16.13 67.0607 15.41 67.9607 14.89C68.8607 14.35 69.8607 14.08 70.9607 14.08V19.51H69.5507C68.2707 19.51 67.3107 19.79 66.6707 20.35C66.0307 20.89 65.7107 21.85 65.7107 23.23V31H60.5807V14.26H65.7107V17.05ZM81.0327 31.24C79.3927 31.24 77.9127 30.89 76.5927 30.19C75.2927 29.49 74.2627 28.49 73.5027 27.19C72.7627 25.89 72.3927 24.37 72.3927 22.63C72.3927 20.91 72.7727 19.4 73.5327 18.1C74.2927 16.78 75.3327 15.77 76.6527 15.07C77.9727 14.37 79.4527 14.02 81.0927 14.02C82.7327 14.02 84.2127 14.37 85.5327 15.07C86.8527 15.77 87.8927 16.78 88.6527 18.1C89.4127 19.4 89.7927 20.91 89.7927 22.63C89.7927 24.35 89.4027 25.87 88.6227 27.19C87.8627 28.49 86.8127 29.49 85.4727 30.19C84.1527 30.89 82.6727 31.24 81.0327 31.24ZM81.0327 26.8C82.0127 26.8 82.8427 26.44 83.5227 25.72C84.2227 25 84.5727 23.97 84.5727 22.63C84.5727 21.29 84.2327 20.26 83.5527 19.54C82.8927 18.82 82.0727 18.46 81.0927 18.46C80.0927 18.46 79.2627 18.82 78.6027 19.54C77.9427 20.24 77.6127 21.27 77.6127 22.63C77.6127 23.97 77.9327 25 78.5727 25.72C79.2327 26.44 80.0527 26.8 81.0327 26.8ZM91.4943 22.6C91.4943 20.88 91.8143 19.37 92.4543 18.07C93.1143 16.77 94.0043 15.77 95.1243 15.07C96.2443 14.37 97.4943 14.02 98.8743 14.02C99.9743 14.02 100.974 14.25 101.874 14.71C102.794 15.17 103.514 15.79 104.034 16.57V8.8H109.164V31H104.034V28.6C103.554 29.4 102.864 30.04 101.964 30.52C101.084 31 100.054 31.24 98.8743 31.24C97.4943 31.24 96.2443 30.89 95.1243 30.19C94.0043 29.47 93.1143 28.46 92.4543 27.16C91.8143 25.84 91.4943 24.32 91.4943 22.6ZM104.034 22.63C104.034 21.35 103.674 20.34 102.954 19.6C102.254 18.86 101.394 18.49 100.374 18.49C99.3543 18.49 98.4843 18.86 97.7643 19.6C97.0643 20.32 96.7143 21.32 96.7143 22.6C96.7143 23.88 97.0643 24.9 97.7643 25.66C98.4843 26.4 99.3543 26.77 100.374 26.77C101.394 26.77 102.254 26.4 102.954 25.66C103.674 24.92 104.034 23.91 104.034 22.63ZM129.406 14.26V31H124.276V28.72C123.756 29.46 123.046 30.06 122.146 30.52C121.266 30.96 120.286 31.18 119.206 31.18C117.926 31.18 116.796 30.9 115.816 30.34C114.836 29.76 114.076 28.93 113.536 27.85C112.996 26.77 112.726 25.5 112.726 24.04V14.26H117.826V23.35C117.826 24.47 118.116 25.34 118.696 25.96C119.276 26.58 120.056 26.89 121.036 26.89C122.036 26.89 122.826 26.58 123.406 25.96C123.986 25.34 124.276 24.47 124.276 23.35V14.26H129.406ZM132.07 22.63C132.07 20.89 132.42 19.37 133.12 18.07C133.84 16.77 134.83 15.77 136.09 15.07C137.37 14.37 138.83 14.02 140.47 14.02C142.57 14.02 144.32 14.57 145.72 15.67C147.14 16.77 148.07 18.32 148.51 20.32H143.05C142.59 19.04 141.7 18.4 140.38 18.4C139.44 18.4 138.69 18.77 138.13 19.51C137.57 20.23 137.29 21.27 137.29 22.63C137.29 23.99 137.57 25.04 138.13 25.78C138.69 26.5 139.44 26.86 140.38 26.86C141.7 26.86 142.59 26.22 143.05 24.94H148.51C148.07 26.9 147.14 28.44 145.72 29.56C144.3 30.68 142.55 31.24 140.47 31.24C138.83 31.24 137.37 30.89 136.09 30.19C134.83 29.49 133.84 28.49 133.12 27.19C132.42 25.89 132.07 24.37 132.07 22.63ZM160.585 26.65V31H157.975C156.115 31 154.665 30.55 153.625 29.65C152.585 28.73 152.065 27.24 152.065 25.18V18.52H150.025V14.26H152.065V10.18H157.195V14.26H160.555V18.52H157.195V25.24C157.195 25.74 157.315 26.1 157.555 26.32C157.795 26.54 158.195 26.65 158.755 26.65H160.585Z" fill="#173A56"/>
</svg>
